<svg width="322" height="322" viewBox="0 0 322 322" fill="none" xmlns="http://www.w3.org/2000/svg">
<path fill-rule="evenodd" clip-rule="evenodd" d="M161 14.75C80.2284 14.75 14.75 80.2284 14.75 161C14.75 241.772 80.2284 307.25 161 307.25C241.772 307.25 307.25 241.772 307.25 161C307.25 80.2284 241.772 14.75 161 14.75ZM13.25 161C13.25 79.3999 79.3999 13.25 161 13.25C242.6 13.25 308.75 79.3999 308.75 161C308.75 242.6 242.6 308.75 161 308.75C79.3999 308.75 13.25 242.6 13.25 161Z" fill="#222222"/>
<path fill-rule="evenodd" clip-rule="evenodd" d="M161 8.75C76.9146 8.75 8.75 76.9146 8.75 161C8.75 245.085 76.9146 313.25 161 313.25C245.085 313.25 313.25 245.085 313.25 161C313.25 76.9146 245.085 8.75 161 8.75ZM7.25 161C7.25 76.0862 76.0862 7.25 161 7.25C245.914 7.25 314.75 76.0862 314.75 161C314.75 245.914 245.914 314.75 161 314.75C76.0862 314.75 7.25 245.914 7.25 161Z" fill="#222222"/>
<path d="M162 182L134 210L162 238L190 210L162 182Z" fill="#E86F2B"/>
<path d="M134 154L106 182L134 210L162 182L134 154Z" fill="#DA5820"/>
<path d="M190 154L162 182L190 210L218 182L190 154Z" fill="#E15240"/>
<path d="M162 126L134 154L162 182L190 154L162 126Z" fill="#CC3E3B"/>
<path d="M218 126L190 154L218 182L246 154L218 126Z" fill="#DA3552"/>
<path d="M106 126L78 154L106 182L134 154L106 126Z" fill="#CC4115"/>
<path d="M190 98L162 126L190 154L218 126L190 98Z" fill="#C12352"/>
<path d="M134 98L106 126L134 154L162 126L134 98Z" fill="#BA2934"/>
<path d="M162 40.5L135.5 67L162 93.5L188.5 67L162 40.5Z" fill="#AC1253"/>
<path d="M124.321 67.1348C86.8155 81.8016 60.25 118.298 60.25 161C60.25 216.643 105.357 261.75 161 261.75C216.643 261.75 261.75 216.643 261.75 161C261.75 118.843 235.857 82.7329 199.107 67.7062L197.955 68.8583C234.468 83.5159 260.25 119.247 260.25 161C260.25 215.814 215.814 260.25 161 260.25C106.186 260.25 61.75 215.814 61.75 161C61.75 118.702 88.2101 82.5834 125.481 68.2947L124.321 67.1348Z" fill="#222222"/>
<path d="M128.982 71.7961C92.4088 84.9251 66.25 119.908 66.25 161C66.25 213.329 108.671 255.75 161 255.75C213.329 255.75 255.75 213.329 255.75 161C255.75 120.457 230.286 85.8618 194.479 72.3345L193.313 73.5006C228.887 86.6426 254.25 120.859 254.25 161C254.25 212.501 212.501 254.25 161 254.25C109.499 254.25 67.75 212.501 67.75 161C67.75 120.308 93.8137 85.7043 130.158 72.9713L128.982 71.7961Z" fill="#222222"/>
<path d="M37.8995 174.655L33.4682 180.165L38.9785 184.596L43.4098 179.086L37.8995 174.655Z" fill="#222222"/>
<path d="M282.912 173.792L277.402 178.224L281.834 183.734L287.344 179.302L282.912 173.792Z" fill="#222222"/>
<path d="M49.1249 227.467L47.6347 224.832L57.8695 219.045L55.9611 215.67L58.1542 214.43L63.4611 223.814L61.268 225.055L59.3596 221.68L49.1249 227.467Z" fill="black"/>
<path d="M66.9001 240.605C64.9923 242 63.1802 242.599 61.4637 242.402C59.7472 242.206 58.2435 241.224 56.9524 239.458C55.6613 237.693 55.1823 235.962 55.5155 234.267C55.8487 232.571 56.9744 231.022 58.8926 229.62C60.8109 228.217 62.6204 227.62 64.3211 227.829C66.0309 228.038 67.5333 229.029 68.8282 230.8C70.1232 232.571 70.6028 234.297 70.2672 235.978C69.9355 237.664 68.8131 239.206 66.9001 240.605ZM60.7501 232.194C59.4625 233.135 58.6715 234.088 58.3772 235.054C58.0829 236.019 58.2912 236.988 59.002 237.96C60.4276 239.91 62.4359 239.937 65.0268 238.043C67.6231 236.145 68.2122 234.226 66.7943 232.287C66.0835 231.314 65.219 230.821 64.2008 230.808C63.188 230.79 62.0377 231.252 60.7501 232.194Z" fill="black"/>
<path d="M75.8159 259.499L69.8291 253.863L79.6159 243.467L85.6027 249.104L83.9024 250.91L80.1198 247.349L77.9709 249.631L81.4905 252.945L79.7902 254.751L76.2706 251.437L73.7469 254.118L77.5296 257.679L75.8159 259.499Z" fill="black"/>
<path d="M82.3498 264.65L79.9858 262.838L88.6711 251.507L95.1663 256.485L93.6573 258.454L89.5261 255.287L87.2865 258.209L91.1309 261.156L89.6279 263.117L85.7835 260.17L82.3498 264.65Z" fill="black"/>
<path d="M92.892 271.865L90.3617 270.294L97.8935 258.165L104.846 262.482L103.537 264.589L99.1153 261.843L97.1731 264.971L101.288 267.526L99.9846 269.625L95.8697 267.07L92.892 271.865Z" fill="black"/>
<path d="M108.822 280.321L101.434 276.712L107.7 263.883L115.089 267.492L114 269.721L109.332 267.441L107.956 270.258L112.3 272.379L111.211 274.608L106.867 272.486L105.251 275.794L109.92 278.075L108.822 280.321Z" fill="black"/>
<path d="M123.599 273.116C122.527 272.729 121.552 272.833 120.672 273.429C119.794 274.018 119.095 275.032 118.575 276.471C117.492 279.465 118.074 281.368 120.321 282.181C121.264 282.521 122.491 282.699 124.003 282.712L123.139 285.1C121.871 285.16 120.558 284.945 119.198 284.454C117.245 283.748 115.965 282.617 115.358 281.061C114.752 279.499 114.85 277.61 115.652 275.393C116.156 273.998 116.852 272.868 117.739 272.005C118.628 271.135 119.647 270.594 120.798 270.38C121.957 270.162 123.176 270.284 124.455 270.747C125.759 271.218 126.956 272.007 128.044 273.114L126.289 275.096C125.873 274.676 125.443 274.285 124.999 273.924C124.555 273.562 124.089 273.293 123.599 273.116Z" fill="black"/>
<path d="M132.825 288.06L129.884 287.342L132.673 275.92L128.906 275L129.504 272.553L139.977 275.11L139.38 277.558L135.614 276.638L132.825 288.06Z" fill="black"/>
<path d="M140.659 289.521L142.799 275.405L145.792 275.858L143.652 289.975L140.659 289.521Z" fill="black"/>
<path d="M159.234 276.92L162.286 277.089L156.651 291.077L153.355 290.894L149.308 276.371L152.36 276.54L154.572 285.171C154.694 285.68 154.814 286.274 154.933 286.952C155.059 287.624 155.134 288.091 155.159 288.353C155.263 287.759 155.565 286.726 156.064 285.254L159.234 276.92Z" fill="black"/>
<path d="M173.65 290.617L165.44 291.072L164.651 276.816L172.861 276.362L172.998 278.838L167.811 279.125L167.984 282.255L172.811 281.988L172.948 284.465L168.121 284.732L168.324 288.408L173.512 288.121L173.65 290.617Z" fill="black"/>
<path d="M190.817 275.368C189.708 275.628 188.947 276.247 188.535 277.227C188.121 278.2 188.089 279.431 188.438 280.921C189.164 284.02 190.691 285.297 193.017 284.752C193.993 284.523 195.118 284.002 196.392 283.188L196.971 285.66C195.942 286.403 194.724 286.94 193.316 287.27C191.294 287.744 189.604 287.494 188.246 286.522C186.887 285.544 185.938 283.907 185.4 281.613C185.062 280.167 185.028 278.841 185.3 277.634C185.571 276.42 186.13 275.41 186.977 274.603C187.829 273.788 188.917 273.225 190.242 272.915C191.592 272.598 193.025 272.607 194.541 272.94L194.152 275.559C193.574 275.433 193.001 275.341 192.432 275.28C191.862 275.22 191.324 275.249 190.817 275.368Z" fill="black"/>
<path d="M212.589 280.683L209.754 281.717L207.641 275.929L202.33 277.868L204.443 283.656L201.599 284.694L196.703 271.282L199.547 270.244L201.466 275.501L206.777 273.562L204.859 268.305L207.693 267.271L212.589 280.683Z" fill="black"/>
<path d="M224.897 274.464L222.428 271.91L217.794 274.28L218.42 277.777L215.516 279.263L213.474 264.205L216.769 262.519L227.801 272.979L224.897 274.464ZM220.628 269.979C218.374 267.673 217.1 266.368 216.806 266.065C216.517 265.759 216.297 265.514 216.144 265.329C216.332 266.169 216.723 268.283 217.316 271.673L220.628 269.979Z" fill="black"/>
<path d="M228.504 262.832L229.316 262.289C230.111 261.757 230.61 261.232 230.811 260.713C231.013 260.195 230.923 259.651 230.543 259.083C230.167 258.52 229.704 258.25 229.155 258.272C228.612 258.291 227.934 258.572 227.122 259.115L226.359 259.625L228.504 262.832ZM229.872 264.877L232.918 269.431L230.401 271.114L222.464 259.247L225.922 256.934C227.535 255.855 228.925 255.352 230.094 255.424C231.258 255.491 232.241 256.123 233.041 257.319C233.507 258.017 233.732 258.768 233.713 259.571C233.691 260.369 233.431 261.158 232.934 261.937C236.504 263.411 238.82 264.356 239.882 264.773L237.09 266.641L231.211 263.982L229.872 264.877Z" fill="black"/>
<path d="M242.603 262.344L233.574 251.284L235.919 249.369L244.948 260.429L242.603 262.344Z" fill="black"/>
<path d="M253.872 252.162L251.707 254.277L243.491 245.866L240.717 248.575L238.957 246.773L246.669 239.239L248.43 241.042L245.656 243.751L253.872 252.162Z" fill="black"/>
<path d="M259.257 246.287L248.412 237.002L250.381 234.702L261.226 243.988L259.257 246.287Z" fill="black"/>
<path d="M270.12 232.059L265.349 238.756L253.721 230.471L258.492 223.774L260.513 225.214L257.498 229.445L260.051 231.264L262.856 227.327L264.876 228.766L262.071 232.703L265.07 234.84L268.084 230.608L270.12 232.059Z" fill="black"/>
<path d="M273.577 218.172C274.699 218.807 275.354 219.712 275.541 220.888C275.732 222.058 275.421 223.362 274.607 224.802C273.857 226.128 272.944 227.16 271.869 227.898L269.42 226.514C270.269 225.887 270.933 225.327 271.413 224.836C271.896 224.338 272.274 223.849 272.546 223.367C272.873 222.789 273.012 222.285 272.964 221.854C272.92 221.417 272.679 221.075 272.243 220.829C271.999 220.691 271.745 220.637 271.481 220.667C271.212 220.694 270.914 220.791 270.587 220.958C270.264 221.12 269.681 221.497 268.837 222.089C268.051 222.647 267.386 223.022 266.843 223.216C266.299 223.41 265.745 223.497 265.181 223.477C264.616 223.457 264.042 223.282 263.458 222.951C262.359 222.33 261.705 221.47 261.495 220.372C261.289 219.268 261.558 218.059 262.301 216.744C262.667 216.098 263.091 215.526 263.574 215.029C264.06 214.526 264.623 214.033 265.263 213.55L266.831 215.558C266.184 216.068 265.684 216.51 265.329 216.885C264.978 217.255 264.684 217.65 264.447 218.069C264.165 218.568 264.064 219.016 264.146 219.414C264.228 219.812 264.456 220.116 264.83 220.328C265.062 220.459 265.297 220.521 265.533 220.512C265.764 220.501 266.027 220.425 266.323 220.286C266.616 220.138 267.221 219.743 268.137 219.102C269.349 218.254 270.358 217.773 271.163 217.66C271.961 217.543 272.766 217.714 273.577 218.172Z" fill="black"/>
<path d="M47.0039 141.066L32.952 138.539L33.6382 134.723L47.6901 137.25L47.0039 141.066Z" fill="black"/>
<path d="M47.9631 111.55C50.1763 112.341 51.6458 113.579 52.3715 115.262C53.0994 116.94 53.0383 118.968 52.1882 121.347L50.8275 125.154L37.383 120.349L38.8916 116.128C39.6759 113.933 40.8644 112.436 42.4569 111.636C44.0494 110.836 45.8849 110.808 47.9631 111.55ZM46.9784 114.538C44.0909 113.506 42.1914 114.265 41.2799 116.815L40.7376 118.333L49.4922 121.462L49.9293 120.238C50.9109 117.492 49.9273 115.592 46.9784 114.538Z" fill="black"/>
<path d="M55.415 97.1763C57.5234 98.2439 58.8791 99.5873 59.4823 101.206C60.0854 102.825 59.8929 104.611 58.9046 106.562C57.9164 108.514 56.5912 109.725 54.9292 110.197C53.2672 110.669 51.3762 110.368 49.2562 109.295C47.1363 108.221 45.7834 106.879 45.1977 105.269C44.6091 103.65 44.8104 101.862 45.8016 99.9048C46.7928 97.9475 48.1135 96.7372 49.7639 96.2739C51.4171 95.8049 53.3008 96.1057 55.415 97.1763ZM50.7075 106.472C52.1305 107.193 53.3389 107.465 54.3326 107.29C55.3264 107.115 56.0953 106.49 56.6395 105.415C57.7307 103.26 56.8446 101.458 53.9811 100.008C51.1119 98.5548 49.1346 98.8999 48.0493 101.043C47.5052 102.118 47.4579 103.112 47.9074 104.025C48.3512 104.936 49.2845 105.752 50.7075 106.472Z" fill="black"/>
<path d="M70.1649 88.4576L67.9911 91.6324L55.5702 90.6551L55.5206 90.7276C57.1644 91.7032 58.3221 92.4209 58.9936 92.8807L64.5373 96.6765L63.009 98.9086L51.2286 90.8424L53.3858 87.6918L65.7125 88.6165L65.7511 88.5601C64.165 87.5924 63.055 86.8915 62.4211 86.4575L56.8451 82.6396L58.3844 80.3914L70.1649 88.4576Z" fill="black"/>
<path d="M78.0364 79.1492L74.8075 77.6675L71.3524 81.5604L73.2069 84.5905L71.0418 87.03L63.6649 73.7449L66.1217 70.9768L80.2015 76.7098L78.0364 79.1492ZM72.4289 76.5225C69.4905 75.1942 67.8293 74.4423 67.4453 74.2668C67.0656 74.0865 66.7708 73.9381 66.561 73.8214C67.0416 74.5353 68.1743 76.3632 69.959 79.3053L72.4289 76.5225Z" fill="black"/>
<path d="M85.5759 72.7718L83.3295 74.8012L75.4475 66.0765L72.5707 68.6755L70.8817 66.8059L78.8817 59.5786L80.5707 61.4482L77.6939 64.0471L85.5759 72.7718Z" fill="black"/>
<path d="M97.2882 63.8069L90.647 68.6553L82.2285 57.1239L88.8697 52.2755L90.3323 54.2789L86.1362 57.3423L87.9846 59.8741L91.8888 57.0238L93.3514 59.0272L89.4471 61.8775L91.618 64.8511L95.8141 61.7877L97.2882 63.8069Z" fill="black"/>
<path d="M113.137 55.13L110.432 56.4674L106.77 49.0615L106.194 47.8317L105.58 46.4794C105.353 47.151 105.187 47.6001 105.081 47.8267L104.194 49.7357L102.085 48.7523L104.585 43.4309L106.809 42.3315L113.137 55.13Z" fill="black"/>
<path d="M124.148 43.1828C125.015 45.5208 125.272 47.3939 124.919 48.8023C124.573 50.2084 123.603 51.2069 122.01 51.7977C120.465 52.3704 119.084 52.2228 117.867 51.355C116.655 50.4849 115.63 48.9176 114.79 46.6529C113.914 44.2906 113.65 42.4094 113.999 41.0094C114.346 39.6032 115.312 38.6059 116.9 38.0174C118.444 37.4447 119.827 37.5983 121.049 38.4784C122.277 39.3561 123.31 40.9243 124.148 43.1828ZM117.601 45.6105C118.21 47.2526 118.787 48.3786 119.333 48.9887C119.882 49.5904 120.493 49.7667 121.164 49.5178C121.823 49.2733 122.166 48.7366 122.192 47.9076C122.218 47.0787 121.93 45.8523 121.328 44.2286C120.719 42.5866 120.132 41.4639 119.568 40.8606C119.008 40.249 118.402 40.0643 117.748 40.3065C117.083 40.5532 116.74 41.0899 116.721 41.9166C116.699 42.7372 116.992 43.9685 117.601 45.6105Z" fill="black"/>
<path d="M128.486 39.0361C128.674 39.8412 128.885 40.4272 129.118 40.794C129.355 41.1529 129.633 41.2954 129.95 41.2213C130.558 41.0791 130.676 40.2092 130.303 38.6116C129.932 37.0267 129.443 36.3054 128.834 36.4476C128.517 36.5217 128.332 36.7723 128.278 37.1994C128.229 37.6187 128.298 38.2309 128.486 39.0361ZM132.694 38.0325C133.035 39.4906 133.009 40.6533 132.617 41.5205C132.223 42.3815 131.481 42.9393 130.391 43.1942C129.345 43.4387 128.449 43.2535 127.704 42.6388C126.957 42.0177 126.417 40.9972 126.085 39.5771C125.408 36.6799 126.163 34.9757 128.351 34.4646C129.422 34.2142 130.331 34.3995 131.078 35.0206C131.83 35.6338 132.369 36.6378 132.694 38.0325ZM138.268 32.3574L133.805 48.0625L131.523 48.5959L135.986 32.8908L138.268 32.3574ZM139.522 42.3137C139.71 43.1189 139.92 43.7048 140.153 44.0716C140.391 44.4306 140.668 44.5731 140.985 44.499C141.594 44.3567 141.711 43.4868 141.338 41.8893C140.968 40.3044 140.478 39.583 139.87 39.7253C139.553 39.7993 139.367 40.05 139.313 40.4771C139.264 40.8964 139.334 41.5086 139.522 42.3137ZM143.73 41.3102C144.069 42.7619 144.043 43.9214 143.65 44.7887C143.257 45.6496 142.514 46.2075 141.424 46.4623C140.378 46.7068 139.482 46.5217 138.737 45.907C137.99 45.2859 137.451 44.2685 137.121 42.8548C136.444 39.9576 137.199 38.2534 139.386 37.7423C140.457 37.4919 141.367 37.6772 142.113 38.2982C142.865 38.9115 143.404 39.9155 143.73 41.3102Z" fill="black"/>
<path d="M191.335 41.1366C190.917 43.4627 190.02 45.1471 188.642 46.1897C187.264 47.2323 185.499 47.5604 183.346 47.174C181.193 46.7877 179.652 45.8662 178.722 44.4097C177.793 42.9531 177.538 41.0554 177.958 38.7164C178.378 36.3775 179.275 34.6963 180.649 33.673C182.031 32.6443 183.801 32.3238 185.961 32.7113C188.12 33.0988 189.659 34.0164 190.577 35.4643C191.5 36.9133 191.753 38.804 191.335 41.1366ZM181.079 39.2962C180.797 40.8662 180.883 42.1019 181.336 43.0035C181.789 43.905 182.609 44.4622 183.794 44.6749C186.172 45.1015 187.644 43.7352 188.211 40.576C188.779 37.4104 187.88 35.6155 185.516 35.1912C184.33 34.9785 183.365 35.2186 182.619 35.9115C181.874 36.598 181.36 37.7262 181.079 39.2962Z" fill="black"/>
<path d="M194.81 49.8605L191.957 49.0065L196.051 35.3287L203.891 37.6752L203.179 40.0515L198.193 38.559L197.137 42.0861L201.778 43.4749L201.069 45.8419L196.429 44.453L194.81 49.8605Z" fill="black"/>
<path d="M215.131 58.2516L217.261 46.7302L217.183 46.6896C216.239 48.7672 215.591 50.1438 215.239 50.8192L212.169 56.7076L209.771 55.4569L216.371 42.797L220.025 44.7023L217.974 55.9456L218.026 55.9726L226.252 47.9485L229.906 49.8538L223.305 62.5137L220.802 61.2089L223.927 55.2166C224.074 54.9338 224.247 54.6091 224.446 54.2427C224.65 53.8792 225.202 52.9189 226.102 51.3617L226.024 51.3211L217.59 59.5339L215.131 58.2516Z" fill="black"/>
<path d="M233.128 59.5161L238.935 56.399L241.61 58.2653L232.736 62.7072L229.556 67.2643L227.089 65.5432L230.213 61.0662L231.375 51.124L234.066 53.0015L233.128 59.5161Z" fill="black"/>
<path d="M240.805 76.7359L250.727 66.4698L252.904 68.5737L242.982 78.8398L240.805 76.7359Z" fill="black"/>
<path d="M254.806 92.3072L252.332 89.3602L256.611 77.6589L256.555 77.5915C255.173 78.9127 254.171 79.835 253.548 80.3582L248.402 84.678L246.663 82.6062L257.598 73.4266L260.053 76.3511L255.85 87.9759L255.894 88.0283C257.252 86.7605 258.225 85.8796 258.814 85.3857L263.99 81.0407L265.741 83.1275L254.806 92.3072Z" fill="black"/>
<path d="M269.685 93.4785C269.065 92.523 268.224 92.0171 267.163 91.9609C266.107 91.9012 264.938 92.2879 263.655 93.1211C260.985 94.8549 260.3 96.7237 261.601 98.7276C262.147 99.5685 263.019 100.45 264.216 101.373L262.086 102.756C261.038 102.039 260.121 101.074 259.334 99.8622C258.203 98.1204 257.865 96.4459 258.319 94.8388C258.779 93.2282 259.998 91.7812 261.974 90.4977C263.219 89.6893 264.456 89.2086 265.684 89.0555C266.917 88.8989 268.057 89.0825 269.104 89.6062C270.159 90.1318 271.057 90.9652 271.798 92.1064C272.554 93.2695 273.031 94.6206 273.231 96.1597L270.635 96.6809C270.557 96.0948 270.451 95.5238 270.315 94.9678C270.179 94.4118 269.969 93.9153 269.685 93.4785Z" fill="black"/>
<path d="M275.122 114.194C273 115.236 271.112 115.511 269.455 115.019C267.799 114.526 266.489 113.298 265.525 111.335C264.561 109.371 264.39 107.584 265.013 105.972C265.636 104.361 267.014 103.031 269.147 101.984C271.28 100.936 273.165 100.663 274.804 101.164C276.451 101.668 277.759 102.904 278.726 104.874C279.693 106.843 279.865 108.626 279.242 110.223C278.622 111.826 277.249 113.15 275.122 114.194ZM270.528 104.841C269.097 105.545 268.152 106.346 267.694 107.245C267.236 108.144 267.273 109.135 267.804 110.216C268.869 112.384 270.841 112.76 273.722 111.345C276.609 109.928 277.523 108.141 276.464 105.984C275.933 104.903 275.168 104.267 274.167 104.077C273.173 103.883 271.96 104.138 270.528 104.841Z" fill="black"/>
<path d="M271.078 124.91L280.638 118.135L280.611 118.052C278.485 118.883 277.061 119.418 276.338 119.657L270.032 121.738L269.184 119.169L282.742 114.695L284.034 118.609L274.725 125.239L274.743 125.294L286.234 125.276L287.526 129.19L273.967 133.664L273.083 130.984L279.5 128.866C279.803 128.766 280.154 128.654 280.551 128.53C280.951 128.411 282.016 128.108 283.747 127.619L283.72 127.535L271.948 127.543L271.078 124.91Z" fill="black"/>
<path d="M275.471 144.03L274.019 135.937L288.072 133.416L289.524 141.509L287.083 141.947L286.165 136.833L283.08 137.387L283.933 142.145L281.492 142.583L280.638 137.825L277.014 138.475L277.932 143.589L275.471 144.03Z" fill="black"/>
</svg>
